<svg xmlns="http://www.w3.org/2000/svg" viewBox="0 0 1200 630" fill="none">
  <defs>
    <linearGradient id="bg" x1="0" y1="0" x2="1200" y2="630" gradientUnits="userSpaceOnUse">
      <stop stop-color="#0b1020" />
      <stop offset="1" stop-color="#161d3a" />
    </linearGradient>
    <linearGradient id="brand" x1="0" y1="0" x2="1200" y2="0" gradientUnits="userSpaceOnUse">
      <stop stop-color="#00d4ff" />
      <stop offset="1" stop-color="#7c5cff" />
    </linearGradient>
  </defs>
  <rect width="1200" height="630" fill="url(#bg)" />

  <!-- Logo -->
  <g transform="translate(80, 220)">
    <circle cx="50" cy="50" r="48" stroke="url(#brand)" stroke-width="5" />
    <circle cx="50" cy="50" r="14" fill="url(#brand)" />
    <path d="M50 14 v18 M50 68 v18 M14 50 h18 M68 50 h18" stroke="url(#brand)" stroke-width="4" stroke-linecap="round" />
  </g>

  <!-- Title -->
  <text x="220" y="290" font-family="ui-sans-serif, system-ui, -apple-system, Segoe UI, Roboto" font-size="84" font-weight="800" fill="white">bmad-dev-loop</text>

  <!-- Tagline -->
  <text x="220" y="350" font-family="ui-sans-serif, system-ui" font-size="34" fill="#aeb8d9">Automated multi-story delivery orchestrator</text>

  <!-- Pipeline chips -->
  <g transform="translate(220, 400)" font-family="ui-monospace, SFMono-Regular, Menlo, monospace" font-size="22" fill="#0b1020">
    <g>
      <rect width="130" height="40" rx="6" fill="#00d4ff" />
      <text x="65" y="27" text-anchor="middle">dev</text>
    </g>
    <g transform="translate(150, 0)">
      <rect width="170" height="40" rx="6" fill="#3a5fff" />
      <text x="85" y="27" text-anchor="middle" fill="white">review</text>
    </g>
    <g transform="translate(340, 0)">
      <rect width="120" height="40" rx="6" fill="#7c5cff" />
      <text x="60" y="27" text-anchor="middle" fill="white">PR</text>
    </g>
    <g transform="translate(480, 0)">
      <rect width="120" height="40" rx="6" fill="#a05cff" />
      <text x="60" y="27" text-anchor="middle" fill="white">CI</text>
    </g>
    <g transform="translate(620, 0)">
      <rect width="160" height="40" rx="6" fill="#ff5cae" />
      <text x="80" y="27" text-anchor="middle" fill="white">merge</text>
    </g>
  </g>

  <!-- Footer -->
  <text x="80" y="580" font-family="ui-monospace, SFMono-Regular, Menlo, monospace" font-size="20" fill="#7c8bbd">npx bmad-dev-loop install   ·   github.com/mmornati/bmad-dev-loop</text>
</svg>
